ffmpeg started on 2016-11-23 at 22:01:51
Report written to "Output/NVENCh264/results/ffmpeg/sintelfast8000k.log"
Command line:
Tools/ffmpeg/ffmpeg -benchmark -y -i Input/y4m/sintel.y4m -c:v h264_nvenc -preset fast -b:v 8000k -an Output/NVENCh264/encoded/sintelfast8000k.mkv
ffmpeg version N-82227-gdb23fde Copyright (c) 2000-2016 the FFmpeg developers
  built with gcc 5.4.0 (Ubuntu 5.4.0-6ubuntu1~16.04.2) 20160609
  configuration: --prefix=/home/jaroslav/ffmpeg_build --pkg-config-flags=--static --extra-cflags=-I/home/jaroslav/ffmpeg_build/include --extra-ldflags=-L/home/jaroslav/ffmpeg_build/lib --bindir=/home/jaroslav/bin --enable-gpl --enable-libass --enable-libfdk-aac --enable-libfreetype --enable-libmp3lame --enable-libopus --enable-libtheora --enable-libvorbis --enable-libvpx --enable-libx264 --enable-libx265 --enable-nvenc --enable-libmfx --enable-libxvid --enable-libgsm --enable-libopencore-amrnb --enable-version3 --enable-nonfree
  libavutil      55. 35.100 / 55. 35.100
  libavcodec     57. 66.101 / 57. 66.101
  libavformat    57. 57.100 / 57. 57.100
  libavdevice    57.  2.100 / 57.  2.100
  libavfilter     6. 66.100 /  6. 66.100
  libswscale      4.  3.100 /  4.  3.100
  libswresample   2.  4.100 /  2.  4.100
  libpostproc    54.  2.100 / 54.  2.100
Input #0, yuv4mpegpipe, from 'Input/y4m/sintel.y4m':
  Duration: 00:00:20.83, start: 0.000000, bitrate: 2057307 kb/s
    Stream #0:0: Video: rawvideo (I420 / 0x30323449), yuv420p(progressive), 4096x1744, SAR 1:1 DAR 256:109, 24 fps, 24 tbr, 24 tbn, 24 tbc
Output #0, matroska, to 'Output/NVENCh264/encoded/sintelfast8000k.mkv':
  Metadata:
    encoder         : Lavf57.57.100
    Stream #0:0: Video: h264 (h264_nvenc) (Main) (H264 / 0x34363248), yuv420p, 4096x1744 [SAR 1:1 DAR 256:109], q=-1--1, 8000 kb/s, 24 fps, 1k tbn, 24 tbc
    Metadata:
      encoder         : Lavc57.66.101 h264_nvenc
    Side data:
      cpb: bitrate max/min/avg: 0/0/8000000 buffer size: 16000000 vbv_delay: -1
Stream mapping:
  Stream #0:0 -> #0:0 (rawvideo (native) -> h264 (h264_nvenc))
Press [q] to stop, [?] for help
frame=   21 fps=0.0 q=0.0 size=       0kB time=00:00:00.00 bitrate=N/A speed=   0x    frame=   42 fps= 42 q=38.0 size=       1kB time=00:00:00.45 bitrate=  12.8kbits/s speed=0.454x    frame=   63 fps= 41 q=39.0 size=       1kB time=00:00:01.33 bitrate=   4.4kbits/s speed=0.878x    frame=   84 fps= 41 q=39.0 size=       1kB time=00:00:02.20 bitrate=   2.7kbits/s speed=1.09x    frame=  105 fps= 41 q=40.0 size=       1kB time=00:00:03.08 bitrate=   1.9kbits/s speed=1.22x    frame=  126 fps= 41 q=39.0 size=       1kB time=00:00:03.95 bitrate=   1.5kbits/s speed= 1.3x    frame=  147 fps= 41 q=38.0 size=    4979kB time=00:00:04.83 bitrate=8437.3kbits/s speed=1.35x    frame=  168 fps= 41 q=39.0 size=    4979kB time=00:00:05.70 bitrate=7144.1kbits/s speed= 1.4x    frame=  177 fps= 27 q=39.0 size=    4979kB time=00:00:06.08 bitrate=6703.8kbits/s speed=0.931x    frame=  178 fps= 18 q=39.0 size=    4979kB time=00:00:06.12 bitrate=6657.8kbits/s speed=0.62x    frame=  179 fps= 14 q=39.0 size=    4979kB time=00:00:06.16 bitrate=6612.5kbits/s speed=0.491x    frame=  199 fps= 15 q=38.0 size=    4979kB time=00:00:07.00 bitrate=5825.7kbits/s speed=0.535x    frame=  220 fps= 16 q=39.0 size=    4979kB time=00:00:07.87 bitrate=5178.5kbits/s speed=0.58x    frame=  241 fps= 17 q=38.0 size=    4979kB time=00:00:08.75 bitrate=4660.7kbits/s speed=0.621x    frame=  262 fps= 18 q=38.0 size=    4979kB time=00:00:09.62 bitrate=4237.1kbits/s speed=0.659x    frame=  283 fps= 19 q=37.0 size=    9167kB time=00:00:10.50 bitrate=7151.2kbits/s speed=0.695x    frame=  304 fps= 19 q=36.0 size=    9885kB time=00:00:11.37 bitrate=7118.0kbits/s speed=0.728x    frame=  325 fps= 20 q=36.0 size=    9885kB time=00:00:12.25 bitrate=6609.6kbits/s speed=0.759x    frame=  346 fps= 21 q=32.0 size=    9885kB time=00:00:13.12 bitrate=6169.0kbits/s speed=0.788x    frame=  367 fps= 21 q=32.0 size=    9885kB time=00:00:14.00 bitrate=5783.5kbits/s speed=0.816x    frame=  388 fps= 22 q=32.0 size=    9885kB time=00:00:14.87 bitrate=5443.3kbits/s speed=0.842x    frame=  409 fps= 22 q=33.0 size=    9885kB time=00:00:15.75 bitrate=5140.9kbits/s speed=0.866x    frame=  430 fps= 23 q=33.0 size=   13148kB time=00:00:16.62 bitrate=6478.3kbits/s speed=0.889x    frame=  451 fps= 23 q=33.0 size=   14312kB time=00:00:17.50 bitrate=6699.4kbits/s speed=0.911x    frame=  472 fps= 24 q=33.0 size=   14312kB time=00:00:18.37 bitrate=6380.4kbits/s speed=0.932x    frame=  493 fps= 24 q=32.0 size=   14312kB time=00:00:19.25 bitrate=6090.4kbits/s speed=0.952x    frame=  500 fps= 24 q=32.0 Lsize=   17312kB time=00:00:20.79 bitrate=6820.7kbits/s speed=1.02x    
video:17307kB audio:0kB subtitle:0kB other streams:0kB global headers:0kB muxing overhead: 0.027885%
bench: utime=0.924s
bench: maxrss=837336kB
